<svg width="255" height="39" viewBox="0 0 255 39" fill="none" xmlns="http://www.w3.org/2000/svg">
<path d="M1.76136 7.72727H8.72727L14.6364 22.1364H14.9091L20.8182 7.72727H27.7841V31H22.3068V16.7045H22.1136L16.5227 30.8523H13.0227L7.43182 16.625H7.23864V31H1.76136V7.72727ZM36.3267 31H30.2812L38.1335 7.72727H45.6222L53.4744 31H47.429L41.9631 13.5909H41.7812L36.3267 31ZM35.5199 21.8409H48.1562V26.1136H35.5199V21.8409ZM55.9801 31V7.72727H65.5938C67.3362 7.72727 68.84 8.04167 70.1051 8.67045C71.3778 9.29167 72.3589 10.1856 73.0483 11.3523C73.7377 12.5114 74.0824 13.8864 74.0824 15.4773C74.0824 17.0909 73.7301 18.4621 73.0256 19.5909C72.321 20.7121 71.321 21.5682 70.0256 22.1591C68.7301 22.7424 67.196 23.0341 65.4233 23.0341H59.3438V18.6023H64.3778C65.2263 18.6023 65.9347 18.4924 66.5028 18.2727C67.0786 18.0455 67.5142 17.7045 67.8097 17.25C68.1051 16.7879 68.2528 16.197 68.2528 15.4773C68.2528 14.7576 68.1051 14.1629 67.8097 13.6932C67.5142 13.2159 67.0786 12.8598 66.5028 12.625C65.9271 12.3826 65.2188 12.2614 64.3778 12.2614H61.6051V31H55.9801ZM69.0824 20.3636L74.8778 31H68.7415L63.0597 20.3636H69.0824ZM77.1676 31V7.72727H82.7926V17.5682H83.0994L90.7926 7.72727H97.4176L89.1676 18.1136L97.5653 31H90.8381L85.0426 21.8523L82.7926 24.6932V31H77.1676ZM99.6364 31V7.72727H115.864V12.2955H105.261V17.0682H115.034V21.6477H105.261V26.4318H115.864V31H99.6364ZM118.625 12.2955V7.72727H138.295V12.2955H131.239V31H125.693V12.2955H118.625ZM141.043 31V7.72727H150.656C152.399 7.72727 153.902 8.06818 155.168 8.75C156.44 9.42424 157.421 10.3674 158.111 11.5795C158.8 12.7841 159.145 14.1856 159.145 15.7841C159.145 17.3902 158.793 18.7955 158.088 20C157.391 21.197 156.395 22.125 155.099 22.7841C153.804 23.4432 152.266 23.7727 150.486 23.7727H144.554V19.3409H149.44C150.289 19.3409 150.997 19.1932 151.565 18.8977C152.141 18.6023 152.577 18.1894 152.872 17.6591C153.168 17.1212 153.315 16.4962 153.315 15.7841C153.315 15.0644 153.168 14.4432 152.872 13.9205C152.577 13.3902 152.141 12.9811 151.565 12.6932C150.99 12.4053 150.281 12.2614 149.44 12.2614H146.668V31H141.043ZM161.918 31V7.72727H167.543V26.4318H177.224V31H161.918ZM185.483 31H179.438L187.29 7.72727H194.778L202.631 31H196.585L191.119 13.5909H190.938L185.483 31ZM184.676 21.8409H197.312V26.1136H184.676V21.8409ZM225.168 16.1591H219.486C219.41 15.5758 219.255 15.0492 219.02 14.5795C218.785 14.1098 218.474 13.7083 218.088 13.375C217.702 13.0417 217.243 12.7879 216.713 12.6136C216.19 12.4318 215.611 12.3409 214.974 12.3409C213.846 12.3409 212.872 12.6174 212.054 13.1705C211.243 13.7235 210.618 14.5227 210.179 15.5682C209.747 16.6136 209.531 17.8788 209.531 19.3636C209.531 20.9091 209.751 22.2045 210.19 23.25C210.637 24.2879 211.262 25.072 212.065 25.6023C212.876 26.125 213.834 26.3864 214.94 26.3864C215.562 26.3864 216.126 26.3068 216.634 26.1477C217.149 25.9886 217.599 25.7576 217.986 25.4545C218.38 25.1439 218.702 24.7689 218.952 24.3295C219.209 23.8826 219.387 23.3788 219.486 22.8182L225.168 22.8523C225.069 23.8826 224.77 24.8977 224.27 25.8977C223.777 26.8977 223.099 27.8106 222.236 28.6364C221.372 29.4545 220.319 30.1061 219.077 30.5909C217.842 31.0758 216.425 31.3182 214.827 31.3182C212.721 31.3182 210.834 30.8561 209.168 29.9318C207.509 29 206.198 27.6439 205.236 25.8636C204.274 24.0833 203.793 21.9167 203.793 19.3636C203.793 16.803 204.281 14.6326 205.259 12.8523C206.236 11.072 207.558 9.7197 209.224 8.79545C210.891 7.87121 212.759 7.40909 214.827 7.40909C216.236 7.40909 217.539 7.60606 218.736 8C219.933 8.38636 220.986 8.95454 221.895 9.70454C222.804 10.447 223.543 11.3598 224.111 12.4432C224.679 13.5265 225.031 14.7652 225.168 16.1591ZM228.386 31V7.72727H244.614V12.2955H234.011V17.0682H243.784V21.6477H234.011V26.4318H244.614V31H228.386Z" fill="#23252B"/>
<rect x="250" y="26" width="5" height="5" fill="#23252B"/>
</svg>
