<svg width="27" height="24" viewBox="0 0 27 24" fill="none" xmlns="http://www.w3.org/2000/svg">
<path d="M23.3993 6.1783C23.4157 6.4322 23.4157 6.68613 23.4157 6.94002C23.4157 14.684 18.0807 23.6071 8.32963 23.6071C5.3256 23.607 2.53493 22.6457 0.187469 20.9773C0.612625 21.0291 1.04016 21.0533 1.46788 21.0499C3.85434 21.0566 6.17326 20.175 8.0506 18.5472C6.94421 18.5249 5.87174 18.1215 4.98297 17.3931C4.0942 16.6648 3.43351 15.648 3.09317 14.4847C3.42444 14.5427 3.75918 14.573 4.09456 14.5754C4.5654 14.5739 5.0342 14.5069 5.48988 14.376C4.28914 14.1077 3.20951 13.3885 2.43442 12.3404C1.65932 11.2923 1.23659 9.9801 1.23804 8.62668V8.554C1.97273 9.00707 2.79393 9.26193 3.63471 9.2978C2.50929 8.46857 1.71276 7.19607 1.4077 5.74006C1.10264 4.28405 1.31205 2.7543 1.9932 1.46307C3.32503 3.2741 4.98652 4.75566 6.86995 5.81165C8.75337 6.86765 10.8167 7.47452 12.926 7.5929C12.8409 7.15168 12.7969 6.702 12.7947 6.25088C12.7957 5.07592 13.1162 3.92838 13.7146 2.95707C14.313 1.98576 15.1617 1.23547 16.1508 0.803492C17.1398 0.371512 18.2235 0.277766 19.2613 0.53441C20.2991 0.791053 21.2432 1.38625 21.9712 2.24282C23.1587 1.99019 24.2973 1.51154 25.3365 0.828227C24.9411 2.18192 24.1122 3.32974 23.0054 4.05639C24.0725 3.92952 25.1067 3.60297 26.0587 3.14962C25.3328 4.31723 24.4338 5.34115 23.3995 6.17827L23.3993 6.1783Z" fill="#23252B"/>
</svg>
